<?xml version="1.0" encoding="UTF-8" standalone="no"?>
<!-- Created with Inkscape (http://www.inkscape.org/) -->

<svg
   width="512px"
   height="512px"
   viewBox="0 0 512 512"
   version="1.1"
   id="svg5"
   inkscape:version="1.2 (dc2aedaf03, 2022-05-15)"
   sodipodi:docname="pokete.svg"
   xml:space="preserve"
   xmlns:inkscape="http://www.inkscape.org/namespaces/inkscape"
   xmlns:sodipodi="http://sodipodi.sourceforge.net/DTD/sodipodi-0.dtd"
   xmlns="http://www.w3.org/2000/svg"
   xmlns:svg="http://www.w3.org/2000/svg"><sodipodi:namedview
     id="namedview7"
     pagecolor="#505050"
     bordercolor="#ffffff"
     borderopacity="1"
     inkscape:showpageshadow="0"
     inkscape:pageopacity="0"
     inkscape:pagecheckerboard="1"
     inkscape:deskcolor="#505050"
     inkscape:document-units="mm"
     showgrid="false"
     inkscape:zoom="1.2029102"
     inkscape:window-width="1920"
     inkscape:window-height="981"
     inkscape:window-x="0"
     inkscape:window-y="0"
     inkscape:window-maximized="1"
     inkscape:current-layer="layer1"
     inkscape:cx="71.908944"
     inkscape:cy="264.35889" /><defs
     id="defs2" /><g
     inkscape:label="Layer 1"
     inkscape:groupmode="layer"
     id="layer1"><rect
       style="fill:#302d2d;fill-opacity:1;stroke:#ffffff;stroke-width:0.194042;stroke-opacity:0"
       id="rect4856"
       width="512"
       height="512"
       x="0"
       y="0"
       ry="45.72245" /><path
       style="fill:#ffffff;stroke-width:1.66893"
       d="m 49.328023,441.95111 v -8.34469 h -7.510219 c -6.898277,0 -7.510222,-0.33996 -7.510222,-4.17234 0,-3.83238 0.611945,-4.17234 7.510222,-4.17234 h 7.510219 v -8.34468 c 0,-7.78839 0.278154,-8.3447 4.17234,-8.3447 3.894186,0 4.17234,0.55631 4.17234,8.3447 v 8.34468 h 7.51022 c 6.898274,0 7.510219,0.33996 7.510219,4.17234 0,3.83238 -0.611945,4.17234 -7.510219,4.17234 h -7.51022 v 8.34469 c 0,7.78838 -0.278154,8.34469 -4.17234,8.34469 -3.894186,0 -4.17234,-0.55631 -4.17234,-8.34469 z m 412.227577,0 v -8.34469 h -7.51023 c -6.89828,0 -7.51022,-0.33996 -7.51022,-4.17234 0,-3.83238 0.61194,-4.17234 7.51022,-4.17234 h 7.51023 v -8.34468 c 0,-7.78839 0.27816,-8.3447 4.17233,-8.3447 3.89419,0 4.17236,0.55631 4.17236,8.3447 v 8.34468 h 7.51021 c 6.89827,0 7.51022,0.33996 7.51022,4.17234 0,3.83238 -0.61195,4.17234 -7.51022,4.17234 h -7.51021 v 8.34469 c 0,7.78838 -0.27817,8.34469 -4.17236,8.34469 -3.89417,0 -4.17233,-0.55631 -4.17233,-8.34469 z M 86.044647,429.43408 v -4.17234 h 19.192783 19.19278 v 4.17234 4.17234 H 105.23743 86.044647 Z m 51.737063,0 v -4.17234 h 18.98416 18.98417 v 4.17234 4.17234 h -18.98417 -18.98416 z m 50.06813,0 v -4.17234 h 19.19277 19.19278 v 4.17234 4.17234 h -19.19278 -19.19277 z m 51.73706,0 v -4.17234 h 19.19277 19.19279 v 4.17234 4.17234 H 258.77967 239.5869 Z m 51.73705,0 v -4.17234 h 19.19279 19.19279 v 4.17234 4.17234 h -19.19279 -19.19279 z m 51.73707,0 v -4.17234 h 19.19279 19.19278 v 4.17234 4.17234 h -19.19278 -19.19279 z m 51.73707,0 v -4.17234 h 19.19278 19.19278 v 4.17234 4.17234 H 413.99087 394.79809 Z M 48.049496,319.70143 l 0.444054,-45.47855 4.589583,-0.52808 4.58957,-0.52808 v 46.00663 46.00663 h -5.033637 -5.033637 z m 412.227574,0 0.44405,-45.47855 4.58959,-0.52808 4.58958,-0.52808 v 46.00663 46.00663 h -5.03364 -5.03364 z m -270.7583,20.44523 c 0,-0.91751 -1.1387,-8.61547 -2.53045,-17.10662 -1.39173,-8.49112 -2.92781,-17.87923 -3.41348,-20.86245 -0.85317,-5.24038 -0.68845,-5.42406 4.86446,-5.42406 h 5.74752 l 1.18828,11.83254 c 0.65358,6.5079 1.75539,13.83036 2.44851,16.27214 1.19882,4.22341 1.31664,4.1145 2.41906,-2.23614 3.0407,-17.51654 3.38489,-18.33671 7.91765,-18.86831 4.12529,-0.48381 4.44395,0.0374 6.20505,10.15033 1.02101,5.86318 1.8679,12.10087 1.88196,13.86149 0.0201,2.52081 0.34161,2.70195 1.51255,0.85231 0.81784,-1.29187 2.0126,-8.98985 2.65503,-17.1066 l 1.16802,-14.75776 h 12.19747 12.19745 l 1.19933,12.93428 c 1.85245,19.97805 3.34027,21.69532 5.78383,6.67575 2.03023,-12.47912 2.26542,-12.93427 6.68352,-12.93427 4.44086,0 4.64654,0.41446 6.80653,13.71519 2.01712,12.42088 2.34217,13.169 3.44429,7.92746 0.66935,-3.18327 1.73104,-10.85714 2.35928,-17.05307 l 1.14231,-11.26534 h 12.1761 12.17608 l 1.17503,15.02045 c 1.59861,20.43484 3.42241,20.06599 6.65921,-1.34685 0.99117,-6.55691 1.47194,-7.14313 5.47489,-6.67575 4.06747,0.47491 4.58238,1.48853 7.04254,13.86388 l 2.65425,13.35151 2.24372,-17.10663 2.2437,-17.10661 h 5.31736 5.31735 l -3.05817,19.61003 c -1.682,10.78551 -3.06971,20.92431 -3.08383,22.53065 -0.0205,2.33904 -1.5008,2.92064 -7.43361,2.92064 h -7.40794 l -1.02785,-7.92745 c -2.01922,-15.57353 -2.90491,-17.11774 -4.54684,-7.92745 -3.07428,17.20753 -2.34904,16.09481 -10.12272,15.53093 l -7.03777,-0.51049 -2.03701,-15.85491 c -2.90919,-22.6434 -3.75277,-26.70299 -5.54883,-26.70299 -0.87633,0 -1.59332,1.92522 -1.59332,4.27828 0,2.35306 -1.22076,12.11634 -2.71279,21.69618 l -2.7128,17.4179 h -7.18076 -7.18072 l -1.07555,-9.59639 c -1.66631,-14.86733 -2.92898,-15.62149 -4.88995,-2.92065 l -1.80375,11.68258 -6.94282,0.50631 c -8.11218,0.5916 -7.79128,1.21835 -10.51325,-20.53356 -2.4341,-19.45155 -3.19109,-22.84862 -4.86151,-21.81623 -0.75727,0.468 -1.86598,5.53073 -2.46381,11.25047 -0.59785,5.71976 -1.91088,15.13083 -2.91791,20.91351 l -1.8309,10.51396 h -7.20607 -7.20605 l -1.16422,-10.87129 c -0.64032,-5.97921 -1.73105,-11.22162 -2.42383,-11.64978 -0.6928,-0.42817 -1.77619,4.46393 -2.40756,10.87129 l -1.14794,11.64978 h -7.40915 c -4.07505,0 -7.40917,-0.75068 -7.40917,-1.66819 z M 48.771704,247.24171 c -0.611946,-0.61193 -1.112627,-21.26503 -1.112627,-45.89577 v -44.78316 h 5.006813 5.006813 v 45.89578 45.8958 h -3.894187 c -2.141801,0 -4.394867,-0.50069 -5.006812,-1.11265 z m 412.227576,0 c -0.61194,-0.61193 -1.11262,-21.26503 -1.11262,-45.89577 v -44.78316 h 5.00681 5.00682 v 45.89578 45.8958 h -3.89419 c -2.14182,0 -4.39488,-0.50069 -5.00682,-1.11265 z M 146.32027,222.13119 c -3.6625,-1.80425 -6.72919,-5.16374 -8.72527,-9.5584 -3.87306,-8.52712 -3.85861,-11.73245 0.0923,-20.4344 7.3522,-16.1937 29.68812,-16.22687 37.36195,-0.0554 3.64647,7.68437 3.51558,11.98924 -0.62458,20.54168 -5.47131,11.30223 -16.72907,15.11029 -28.10429,9.5066 z m 14.25146,-9.61092 c 4.58392,-3.2107 5.84261,-10.37947 3.01192,-17.15427 -1.84676,-4.41988 -3.19864,-5.42447 -7.29976,-5.42447 -6.07249,0 -8.48855,3.74202 -8.48855,13.14716 0,5.02216 0.92505,7.33876 3.70922,9.28887 4.54501,3.18344 4.72193,3.18623 9.06717,0.1427 z m 192.70568,9.61522 c -8.55408,-4.21404 -12.20375,-11.20945 -11.41418,-21.87781 0.89843,-12.13924 7.29881,-18.77486 19.21353,-19.91971 7.65468,-0.73552 8.80611,-0.34608 14.55587,4.92318 5.2459,4.80752 6.37236,7.06134 7.04905,14.1039 0.98038,10.2029 -2.38226,17.66148 -10.07803,22.35386 -6.50365,3.9655 -11.88673,4.08153 -19.32624,0.41658 z m 14.81768,-10.49777 c 6.62879,-6.62878 2.57218,-21.69619 -5.84128,-21.69619 -8.43206,0 -12.31287,14.36527 -5.77626,21.3815 4.22308,4.53295 7.3155,4.61673 11.61754,0.31469 z M 48.989451,90.810509 48.49355,82.295059 h -7.095141 c -6.628055,0 -7.095001,-0.302149 -7.092985,-4.589583 0.002,-4.32655 0.432558,-4.589582 7.51238,-4.589582 h 7.510219 v -8.460762 c 0,-7.819509 0.2846,-8.420339 3.75511,-7.927444 3.196988,0.454043 3.830149,1.69791 4.260034,8.369082 l 0.504937,7.835774 7.005283,0.508918 c 5.806852,0.421849 7.096519,1.151317 7.538595,4.264014 0.486313,3.424147 -0.138838,3.75511 -7.092988,3.75511 h -7.626291 v 8.150127 c 0,7.326382 -0.41375,8.229222 -4.093671,8.93268 -3.86591,0.739019 -4.121257,0.308783 -4.589581,-7.732884 z M 461.2298,90.222508 460.72112,82.295059 h -7.09513 c -6.62806,0 -7.095,-0.302149 -7.09299,-4.589583 10e-4,-4.32655 0.43255,-4.589582 7.51237,-4.589582 h 7.51023 v -8.34468 c 0,-7.788379 0.27816,-8.344686 4.17233,-8.344686 3.89419,0 4.17236,0.556307 4.17236,8.344686 v 8.34468 h 7.51021 c 6.89827,0 7.51022,0.339974 7.51022,4.172352 0,3.832378 -0.61195,4.17234 -7.51022,4.17234 h -7.51021 v 8.344692 c 0,7.738505 -0.29644,8.344679 -4.08091,8.344679 -3.68444,0 -4.13032,-0.770185 -4.58958,-7.927449 z M 86.041367,77.650815 l 0.0038,-4.644232 18.775533,0.471892 c 17.87406,0.449236 18.80052,0.647255 19.29539,4.124237 0.50551,3.551632 -0.0125,3.666677 -18.77883,4.172339 l -19.298653,0.520008 0.0038,-4.644244 z m 51.739983,0 3.6e-4,-4.644232 18.77554,0.471892 c 18.3902,0.462204 18.77555,0.55135 18.77555,4.343572 0,3.802375 -0.33611,3.877064 -18.77591,4.172353 L 137.781,82.295059 Z m 50.84402,3.714416 c -0.31608,-0.511409 -0.36179,-2.388963 -0.10162,-4.172352 0.43118,-2.955434 2.12152,-3.284294 19.09235,-3.714404 l 18.61931,-0.471892 v 4.644232 4.644244 h -18.51767 c -10.18473,0 -18.77628,-0.418432 -19.09235,-0.929828 z m 51.40495,-1.156348 c -0.44031,-1.147399 -0.36826,-3.212709 0.16005,-4.589582 0.77356,-2.015907 4.54585,-2.503407 19.37134,-2.503407 h 18.41075 v 4.589582 4.589583 h -18.57081 c -13.31704,0 -18.79726,-0.590191 -19.37133,-2.086176 z m 51.73707,0 c -0.4403,-1.147399 -0.36826,-3.212709 0.16004,-4.589582 0.77358,-2.015907 4.54586,-2.503407 19.37134,-2.503407 h 18.41076 v 4.589582 4.589583 h -18.57081 c -13.31704,0 -18.79727,-0.590191 -19.37133,-2.086176 z m 51.98902,1.390779 c -0.38247,-0.382457 -0.69539,-2.447768 -0.69539,-4.589581 0,-3.85387 0.19869,-3.894187 19.19279,-3.894187 h 19.19278 v 4.589582 4.589583 H 362.9492 c -10.17358,0 -18.81033,-0.312926 -19.19279,-0.695397 z m 51.04033,-3.894186 10e-4,-4.589582 h 19.19278 19.19278 l -10e-4,4.589582 -10e-4,4.589583 H 413.98878 394.797 l 10e-4,-4.589583 z"
       id="path3823"
       sodipodi:nodetypes="scssscssscssscsssscssscssscssscssscccccccccccccccccccccccccccccccccccccccccccccccccccccccccccccccccccccccccccccccccsssscsssssssscccsssssscccsssscccccssscssscsssscccsscssssscccssscsssscccccsssscccccsssscssssssssssssssssssssssscssscssscssscsssscscscssscssscsssccssscccccsssccscscccssssscccssscscccssssscccsscccccccccc" /></g></svg>
